<?xml version="1.0" encoding="UTF-8" standalone="no"?>
<svg
   width="647.974"
   zoomAndPan="magnify"
   viewBox="0 0 485.9805 280.66407"
   height="374.21878"
   preserveAspectRatio="xMidYMid"
   version="1.0"
   id="svg11"
   xmlns="http://www.w3.org/2000/svg"
   xmlns:svg="http://www.w3.org/2000/svg">
  <defs
     id="defs5">
    <clipPath
       id="3a09c1210e">
      <path
         d="M 162,365.32031 H 648 V 646 H 162 Z m 0,0"
         clip-rule="nonzero"
         id="path2" />
    </clipPath>
  </defs>
  <g
     clip-path="url(#3a09c1210e)"
     id="g9"
     transform="translate(-162.00781,-365.32031)">
    <path
       fill="#f16122"
       d="M 635.19922,645.98437 H 174.79687 c -0.83984,0 -1.67187,-0.082 -2.49609,-0.24609 -0.82422,-0.16406 -1.625,-0.40625 -2.39844,-0.72656 -0.77734,-0.32031 -1.51172,-0.71485 -2.21093,-1.17969 -0.69922,-0.46875 -1.34375,-1 -1.9375,-1.59375 -0.59375,-0.59375 -1.125,-1.23828 -1.59375,-1.9375 -0.46485,-0.69922 -0.85938,-1.43359 -1.17969,-2.21094 -0.32031,-0.77343 -0.5625,-1.57422 -0.72656,-2.39843 -0.16407,-0.82422 -0.2461,-1.65625 -0.2461,-2.4961 0,-0.83984 0.082,-1.67187 0.2461,-2.49219 0.16406,-0.82421 0.40625,-1.625 0.72656,-2.40234 0.32031,-0.77344 0.71484,-1.51172 1.17969,-2.21094 0.46875,-0.69531 1,-1.34375 1.59375,-1.9375 0.59375,-0.59375 1.23828,-1.12109 1.9375,-1.58984 0.69921,-0.46484 1.43359,-0.85938 2.21093,-1.17969 0.77344,-0.32422 1.57422,-0.5664 2.39844,-0.73047 0.82422,-0.16406 1.65625,-0.24609 2.49609,-0.24609 h 460.40235 c 0.83984,0 1.67187,0.082 2.49219,0.24609 0.82421,0.16407 1.625,0.40625 2.40234,0.73047 0.77344,0.32031 1.51172,0.71485 2.21094,1.17969 0.69531,0.46875 1.34375,0.99609 1.9375,1.58984 0.59375,0.59375 1.125,1.24219 1.58984,1.9375 0.46484,0.69922 0.85938,1.4375 1.18359,2.21094 0.32032,0.77734 0.5625,1.57813 0.72657,2.40234 0.16406,0.82032 0.24609,1.65235 0.24609,2.49219 0,0.83985 -0.082,1.67188 -0.24609,2.4961 -0.16407,0.82421 -0.40625,1.625 -0.72657,2.39843 -0.32421,0.77735 -0.71875,1.51172 -1.18359,2.21094 -0.46484,0.69922 -0.99609,1.34375 -1.58984,1.9375 -0.59375,0.59375 -1.24219,1.125 -1.9375,1.59375 -0.69922,0.46484 -1.4375,0.85938 -2.21094,1.17969 -0.77734,0.32031 -1.57813,0.5625 -2.40234,0.72656 -0.82032,0.16406 -1.65235,0.24609 -2.49219,0.24609 z m 0,-127.55468 H 174.79687 c -0.83984,0 -1.67187,-0.082 -2.49609,-0.2461 -0.82422,-0.16406 -1.625,-0.40625 -2.39844,-0.73047 -0.77734,-0.32031 -1.51172,-0.71484 -2.21093,-1.17968 -0.69922,-0.46875 -1.34375,-0.9961 -1.9375,-1.58985 -0.59375,-0.59375 -1.125,-1.24218 -1.59375,-1.9375 -0.46485,-0.69922 -0.85938,-1.4375 -1.17969,-2.21093 -0.32031,-0.77735 -0.5625,-1.57813 -0.72656,-2.40235 -0.16407,-0.82031 -0.2461,-1.65234 -0.2461,-2.49219 0,-0.83984 0.082,-1.67187 0.2461,-2.49609 0.16406,-0.82422 0.40625,-1.625 0.72656,-2.39844 0.32031,-0.77734 0.71484,-1.51172 1.17969,-2.21093 0.46875,-0.69922 1,-1.34375 1.59375,-1.9375 0.59375,-0.59375 1.23828,-1.125 1.9375,-1.59375 0.69921,-0.46485 1.43359,-0.85938 2.21093,-1.17969 0.77344,-0.32031 1.57422,-0.5625 2.39844,-0.72656 0.82422,-0.16407 1.65625,-0.2461 2.49609,-0.2461 h 460.40235 c 0.83984,0 1.67187,0.082 2.49219,0.2461 0.82421,0.16406 1.625,0.40625 2.40234,0.72656 0.77344,0.32031 1.51172,0.71484 2.21094,1.17969 0.69531,0.46875 1.34375,1 1.9375,1.59375 0.59375,0.59375 1.125,1.23828 1.58984,1.9375 0.46484,0.69921 0.85938,1.43359 1.18359,2.21093 0.32032,0.77344 0.5625,1.57422 0.72657,2.39844 0.16406,0.82422 0.24609,1.65625 0.24609,2.49609 0,0.83985 -0.082,1.67188 -0.24609,2.49219 -0.16407,0.82422 -0.40625,1.625 -0.72657,2.40235 -0.32421,0.77343 -0.71875,1.51171 -1.18359,2.21093 -0.46484,0.69532 -0.99609,1.34375 -1.58984,1.9375 -0.59375,0.59375 -1.24219,1.1211 -1.9375,1.58985 -0.69922,0.46484 -1.4375,0.85937 -2.21094,1.17968 -0.77734,0.32422 -1.57813,0.56641 -2.40234,0.73047 -0.82032,0.16407 -1.65235,0.2461 -2.49219,0.2461 z m 0,-127.53125 H 174.79687 c -0.83984,0 -1.67187,-0.082 -2.49609,-0.2461 -0.82422,-0.16406 -1.625,-0.40625 -2.39844,-0.73047 -0.77734,-0.32031 -1.51172,-0.71484 -2.21093,-1.17968 -0.69922,-0.46875 -1.34375,-0.9961 -1.9375,-1.58985 -0.59375,-0.59375 -1.125,-1.24218 -1.59375,-1.9375 -0.46485,-0.69922 -0.85938,-1.4375 -1.17969,-2.21093 -0.32031,-0.77735 -0.5625,-1.57813 -0.72656,-2.40235 -0.16407,-0.82031 -0.2461,-1.65234 -0.2461,-2.49219 0,-0.83984 0.082,-1.67187 0.2461,-2.49609 0.16406,-0.82422 0.40625,-1.625 0.72656,-2.39844 0.32031,-0.77734 0.71484,-1.51562 1.17969,-2.21093 0.46875,-0.69922 1,-1.34375 1.59375,-1.9375 0.59375,-0.59375 1.23828,-1.125 1.9375,-1.59375 0.69921,-0.46485 1.43359,-0.85938 2.21093,-1.17969 0.77344,-0.32031 1.57422,-0.56641 2.39844,-0.72656 0.82422,-0.16407 1.65625,-0.2461 2.49609,-0.2461 h 460.40235 c 0.83984,0 1.67187,0.082 2.49219,0.2461 0.82421,0.16015 1.625,0.40625 2.40234,0.72656 0.77344,0.32031 1.51172,0.71484 2.21094,1.17969 0.69531,0.46875 1.34375,1 1.9375,1.59375 0.59375,0.59375 1.125,1.23828 1.58984,1.9375 0.46484,0.69531 0.85938,1.43359 1.18359,2.21093 0.32032,0.77344 0.5625,1.57422 0.72657,2.39844 0.16406,0.82422 0.24609,1.65625 0.24609,2.49609 0,0.83985 -0.082,1.67188 -0.24609,2.49219 -0.16407,0.82422 -0.40625,1.625 -0.72657,2.40235 -0.32421,0.77343 -0.71875,1.51171 -1.18359,2.21093 -0.46484,0.69532 -0.99609,1.34375 -1.58984,1.9375 -0.59375,0.59375 -1.24219,1.1211 -1.9375,1.58985 -0.69922,0.46484 -1.4375,0.85937 -2.21094,1.17968 -0.77734,0.32422 -1.57813,0.56641 -2.40234,0.73047 -0.82032,0.16407 -1.65235,0.2461 -2.49219,0.2461 z m 0,0"
       fill-opacity="1"
       fill-rule="nonzero"
       id="path7" />
  </g>
</svg>
