<svg xmlns="http://www.w3.org/2000/svg" xmlns:xlink="http://www.w3.org/1999/xlink" width="1080" zoomAndPan="magnify" viewBox="0 0 810 809.999993" height="1080" preserveAspectRatio="xMidYMid meet" version="1.0"><defs><clipPath id="f94b2243b8"><path d="M 190 145 L 620 145 L 620 692.785156 L 190 692.785156 Z M 190 145 " clip-rule="nonzero"/></clipPath></defs><rect x="-81" width="972" fill="#ffffff" y="-80.999999" height="971.999992" fill-opacity="1"/><rect x="-81" width="972" fill="#ffffff" y="-80.999999" height="971.999992" fill-opacity="1"/><g clip-path="url(#f94b2243b8)"><path fill="#000000" d="M 458.679688 587.464844 L 494.105469 669.652344 L 533.734375 605.839844 L 607.363281 620.910156 L 561.4375 514.355469 C 532.703125 526.609375 534.652344 532.039062 517.066406 558.902344 C 504 578.867188 481.628906 589.445312 458.679688 587.464844 Z M 405.054688 261.757812 L 485.21875 296.085938 L 485.21875 360.851562 C 485.21875 408.390625 451.152344 445.085938 405.054688 453.117188 C 358.960938 445.085938 324.894531 408.390625 324.894531 360.851562 L 324.894531 296.085938 Z M 394.421875 364.574219 L 376.328125 346.496094 C 371.636719 341.8125 364.03125 341.8125 359.339844 346.496094 C 354.652344 351.183594 354.652344 358.785156 359.339844 363.46875 L 385.953125 390.058594 C 390.644531 394.746094 398.25 394.746094 402.941406 390.058594 C 418.980469 374.03125 434.839844 357.824219 450.808594 341.722656 C 455.464844 337.027344 455.449219 329.449219 450.753906 324.785156 C 446.0625 320.121094 438.457031 320.136719 433.796875 324.839844 Z M 432.195312 154.566406 C 474.730469 186.378906 465.082031 182.871094 518.128906 185.820312 C 538.507812 186.949219 555.054688 200.824219 559.710938 220.679688 C 571.828125 272.367188 566.695312 263.484375 605.433594 299.816406 C 620.316406 313.769531 624.066406 335.027344 614.859375 353.226562 C 590.894531 400.601562 592.675781 390.503906 598.980469 443.214844 C 601.402344 463.460938 590.601562 482.15625 571.84375 490.183594 C 523.003906 511.082031 530.867188 504.488281 501.785156 548.917969 C 490.617188 565.984375 470.316406 573.367188 450.78125 567.46875 C 399.925781 552.109375 410.191406 552.109375 359.332031 567.46875 C 339.796875 573.367188 319.496094 565.984375 308.328125 548.917969 C 279.246094 504.488281 287.113281 511.082031 238.273438 490.183594 C 219.511719 482.15625 208.710938 463.460938 211.132812 443.214844 C 217.4375 390.503906 219.222656 400.601562 195.253906 353.226562 C 186.046875 335.027344 189.796875 313.769531 204.679688 299.816406 C 243.417969 263.484375 238.285156 272.367188 250.40625 220.679688 C 255.058594 200.824219 271.609375 186.949219 291.984375 185.820312 C 345.03125 182.871094 335.386719 186.378906 377.921875 154.566406 C 394.253906 142.34375 415.859375 142.34375 432.195312 154.566406 Z M 405.054688 219.386719 C 328.753906 219.386719 266.894531 281.195312 266.894531 357.4375 C 266.894531 433.679688 328.753906 495.488281 405.054688 495.488281 C 481.359375 495.488281 543.21875 433.679688 543.21875 357.4375 C 543.21875 281.195312 481.363281 219.386719 405.054688 219.386719 Z M 314.550781 692.746094 L 364.613281 584.929688 C 337.390625 593.152344 308.613281 582.6875 293.046875 558.902344 C 283.328125 544.058594 276.042969 526.84375 259.421875 519.113281 L 202.75 640.742188 L 276.789062 627.816406 Z M 314.550781 692.746094 " fill-opacity="1" fill-rule="evenodd"/></g></svg>