<?xml version="1.0" encoding="UTF-8" standalone="no"?>
<svg
   width="572.78546"
   zoomAndPan="magnify"
   viewBox="0 0 429.5891 547.34669"
   height="729.79559"
   preserveAspectRatio="xMidYMid"
   version="1.0"
   id="svg15"
   xmlns="http://www.w3.org/2000/svg"
   xmlns:svg="http://www.w3.org/2000/svg">
  <defs
     id="defs5">
    <clipPath
       id="f94b2243b8">
      <path
         d="M 190,145 H 620 V 692.78516 H 190 Z m 0,0"
         clip-rule="nonzero"
         id="path2" />
    </clipPath>
  </defs>
  <g
     clip-path="url(#f94b2243b8)"
     id="g13"
     transform="translate(-190.2621,-145.39941)">
    <path
       fill="#000000"
       d="m 458.67969,587.46484 35.42578,82.1875 39.6289,-63.8125 73.62891,15.07032 -45.92578,-106.55469 c -28.73438,12.2539 -26.78516,17.68359 -44.37109,44.54687 -13.06641,19.96485 -35.4375,30.54297 -58.38672,28.5625 z m -53.625,-325.70703 80.16406,34.32813 v 64.76562 c 0,47.53906 -34.06641,84.23438 -80.16406,92.26563 -46.09375,-8.03125 -80.16016,-44.72657 -80.16016,-92.26563 v -64.76562 z m -10.63282,102.81641 -18.09375,-18.07813 c -4.6914,-4.68359 -12.29687,-4.68359 -16.98828,0 -4.6875,4.6875 -4.6875,12.28907 0,16.97266 l 26.61328,26.58984 c 4.69141,4.6875 12.29688,4.6875 16.98829,0 16.03906,-16.02734 31.89843,-32.23437 47.86718,-48.33593 4.65625,-4.69532 4.64063,-12.27344 -0.0547,-16.9375 -4.69141,-4.66407 -12.29688,-4.64844 -16.95704,0.0547 z m 37.77344,-210.00781 c 42.53516,31.8125 32.88672,28.30468 85.9336,31.2539 20.3789,1.12891 36.92578,15.00391 41.58203,34.85938 12.11718,51.6875 6.98437,42.80468 45.72265,79.13672 14.88282,13.95312 18.63282,35.21093 9.42578,53.41015 -23.96484,47.375 -22.18359,37.27735 -15.8789,89.98828 2.42187,20.2461 -8.37891,38.94141 -27.13672,46.96875 -48.83984,20.89844 -40.97656,14.30469 -70.05859,58.73438 -11.16797,17.0664 -31.46875,24.44922 -51.00391,18.55078 -50.85547,-15.35938 -40.58984,-15.35938 -91.44922,0 -19.53516,5.89844 -39.83594,-1.48438 -51.00391,-18.55078 -29.08203,-44.42969 -21.21484,-37.83594 -70.05468,-58.73438 -18.76172,-8.02734 -29.5625,-26.72265 -27.14063,-46.96875 6.30469,-52.71093 8.08985,-42.61328 -15.8789,-89.98828 -9.20704,-18.19922 -5.45704,-39.45703 9.42578,-53.41015 38.73828,-36.33204 33.60547,-27.44922 45.72656,-79.13672 4.65234,-19.85547 21.20312,-33.73047 41.57812,-34.85938 53.04688,-2.94922 43.40235,0.5586 85.9375,-31.2539 16.33204,-12.22266 37.9375,-12.22266 54.27344,0 z m -27.14062,64.82031 c -76.30078,0 -138.16016,61.80859 -138.16016,138.05078 0,76.24219 61.85938,138.05078 138.16016,138.05078 76.30468,0 138.16406,-61.80859 138.16406,-138.05078 0,-76.24219 -61.85547,-138.05078 -138.16406,-138.05078 z m -90.50391,473.35937 50.0625,-107.8164 c -27.22266,8.22265 -56,-2.24219 -71.56641,-26.02735 -9.71875,-14.84375 -17.0039,-32.05859 -33.625,-39.78906 L 202.75,640.74219 276.78906,627.81641 Z m 0,0"
       fill-opacity="1"
       fill-rule="evenodd"
       id="path11" />
  </g>
</svg>
