<?xml version="1.0" encoding="UTF-8" standalone="no"?>
<!-- Uploaded to: SVG Repo, www.svgrepo.com, Generator: SVG Repo Mixer Tools -->

<svg
   fill="#000000"
   version="1.1"
   id="Capa_1"
   width="799.91193"
   height="800.01764"
   viewBox="0 0 45.397002 45.403001"
   xml:space="preserve"
   sodipodi:docname="plus.svg"
   xmlns:inkscape="http://www.inkscape.org/namespaces/inkscape"
   xmlns:sodipodi="http://sodipodi.sourceforge.net/DTD/sodipodi-0.dtd"
   xmlns="http://www.w3.org/2000/svg"
   xmlns:svg="http://www.w3.org/2000/svg"><defs
   id="defs1" /><sodipodi:namedview
   id="namedview1"
   pagecolor="#ffffff"
   bordercolor="#000000"
   borderopacity="0.25"
   inkscape:showpageshadow="2"
   inkscape:pageopacity="0.0"
   inkscape:pagecheckerboard="0"
   inkscape:deskcolor="#d1d1d1"><inkscape:page
     x="0"
     y="0"
     width="45.397003"
     height="45.403"
     id="page2"
     margin="0"
     bleed="0" /></sodipodi:namedview>
<g
   id="g1"
   style="fill:#ffffff;fill-opacity:1"
   transform="translate(-0.00299838)">
	<path
   d="M 41.267,18.557 H 26.832 V 4.134 C 26.832,1.851 24.99,0 22.707,0 20.424,0 18.583,1.851 18.583,4.135 V 18.567 H 4.141 c -2.283,0 -4.139,1.851 -4.138,4.135 -0.001,1.141 0.46,2.187 1.207,2.934 0.748,0.749 1.78,1.222 2.92,1.222 H 18.583 V 41.27 c 0,1.142 0.453,2.176 1.201,2.922 0.748,0.748 1.777,1.211 2.919,1.211 2.282,0 4.129,-1.851 4.129,-4.133 V 26.857 h 14.435 c 2.283,0 4.134,-1.867 4.133,-4.15 -10e-4,-2.282 -1.852,-4.15 -4.133,-4.15 z"
   id="path1"
   style="fill:#ffffff;fill-opacity:1" />
</g>
</svg>
