<?xml version="1.0" encoding="UTF-8" standalone="no"?>
<svg
   width="442.80765"
   zoomAndPan="magnify"
   viewBox="0 0 332.10574 368.74221"
   height="491.65628"
   preserveAspectRatio="xMidYMid"
   version="1.0"
   id="svg11"
   xmlns="http://www.w3.org/2000/svg"
   xmlns:svg="http://www.w3.org/2000/svg">
  <defs
     id="defs5">
    <clipPath
       id="b7d1a4bb49">
      <path
         d="M 246,328 H 579 V 697.96875 H 246 Z m 0,0"
         clip-rule="nonzero"
         id="path2" />
    </clipPath>
  </defs>
  <g
     clip-path="url(#b7d1a4bb49)"
     id="g9"
     transform="translate(-246.58073,-328.65128)">
    <path
       fill="#f16122"
       d="m 575.73437,675.22266 -80.3125,-106.19532 c 2.05469,-2.23437 4.03516,-4.52734 5.94141,-6.88281 1.90625,-2.35937 3.73828,-4.77344 5.48828,-7.24609 1.75391,-2.47657 3.42969,-5 5.02344,-7.58203 1.59375,-2.57813 3.10156,-5.20704 4.52734,-7.88282 1.42969,-2.67578 2.76953,-5.39062 4.02344,-8.15234 1.25391,-2.76172 2.41797,-5.55859 3.49609,-8.39063 1.07422,-2.83593 2.0625,-5.70312 2.95704,-8.59765 0.89453,-2.89844 1.69531,-5.82031 2.40625,-8.76953 0.70703,-2.94532 1.32421,-5.91407 1.84375,-8.90235 0.52343,-2.98437 0.94921,-5.98437 1.27734,-9 0.33203,-3.01562 0.56641,-6.03515 0.70312,-9.0625 0.14063,-3.03125 0.1836,-6.0625 0.12891,-9.09375 -0.0508,-3.03125 -0.20312,-6.05859 -0.44922,-9.07812 -0.24219,-3.02344 -0.58594,-6.03516 -1.01953,-9.03516 -0.4375,-3 -0.96875,-5.98437 -1.59375,-8.94922 -0.62891,-2.96875 -1.34766,-5.91015 -2.16016,-8.83203 -0.8125,-2.92187 -1.71484,-5.8125 -2.71484,-8.67578 -0.99609,-2.86328 -2.08203,-5.69531 -3.25781,-8.48828 -1.17578,-2.79688 -2.4375,-5.55078 -3.78906,-8.26563 -1.34766,-2.71484 -2.78516,-5.38281 -4.30469,-8.00781 -1.51953,-2.62109 -3.1211,-5.19531 -4.80469,-7.71484 -1.68359,-2.52344 -3.44531,-4.98828 -5.28516,-7.39844 -1.83984,-2.41016 -3.7539,-4.76172 -5.74218,-7.05078 -1.98828,-2.28516 -4.04688,-4.51172 -6.17969,-6.66797 -2.12891,-2.15625 -4.32422,-4.24609 -6.58594,-6.26562 -2.26172,-2.01954 -4.58594,-3.96094 -6.97265,-5.83204 -2.38672,-1.87109 -4.82813,-3.66796 -7.32813,-5.38281 -2.5,-1.71484 -5.05078,-3.35156 -7.65625,-4.90625 -2.60156,-1.55469 -5.25391,-3.02344 -7.94922,-4.41015 -2.69531,-1.38282 -5.43359,-2.6836 -8.21484,-3.89454 -2.77735,-1.21484 -5.59375,-2.33593 -8.44141,-3.37109 -2.85156,-1.03125 -5.73047,-1.97656 -8.64062,-2.82812 -2.91016,-0.84766 -5.84375,-1.60547 -8.80469,-2.26954 -2.95703,-0.66796 -5.93359,-1.23828 -8.92969,-1.71093 -2.99219,-0.47657 -6,-0.85938 -9.01953,-1.14453 -3.01562,-0.28516 -6.04297,-0.47266 -9.07031,-0.56641 -3.03125,-0.0937 -6.0625,-0.0898 -9.09375,0.0117 -3.03125,0.0976 -6.05469,0.29297 -9.07031,0.58203 -3.01954,0.29297 -6.02344,0.67969 -9.01954,1.16016 -2.99218,0.48437 -5.96875,1.05859 -8.92578,1.73046 -2.95703,0.67188 -5.88672,1.4336 -8.79687,2.28907 -2.91016,0.85937 -5.78516,1.80468 -8.63672,2.84765 -2.84766,1.03907 -5.66016,2.16797 -8.4375,3.38282 -2.77344,1.21875 -5.51172,2.52343 -8.20313,3.91406 -2.69531,1.39062 -5.34375,2.86719 -7.9414,4.42578 -2.60156,1.5625 -5.14844,3.20312 -7.64453,4.92187 -2.4961,1.72266 -4.9375,3.51954 -7.31641,5.39454 -2.38281,1.8789 -4.70312,3.82812 -6.96094,5.85156 -2.25781,2.02344 -4.45312,4.11328 -6.57812,6.27734 -2.125,2.16016 -4.17969,4.39063 -6.16406,6.67969 -1.98438,2.29297 -3.89454,4.64844 -5.72657,7.0625 -1.83593,2.41406 -3.59375,4.88281 -5.26953,7.40625 -1.67969,2.52734 -3.27734,5.10156 -4.78906,7.73047 -1.51563,2.625 -2.94531,5.29687 -4.28906,8.01562 -1.34766,2.71485 -2.60547,5.47266 -3.77344,8.26953 -1.17188,2.79688 -2.25,5.62891 -3.24219,8.4961 -0.98828,2.86328 -1.89062,5.75781 -2.69531,8.67969 -0.80859,2.92578 -1.51953,5.87109 -2.14063,8.83593 -0.62109,2.96875 -1.14453,5.95313 -1.57421,8.95703 -0.4336,3 -0.76563,6.01172 -1.00782,9.03516 -0.23828,3.02344 -0.38281,6.04688 -0.42968,9.08203 -0.0469,3.03125 0.004,6.0586 0.14843,9.08985 0.14453,3.02734 0.38672,6.04687 0.72266,9.0625 0.33594,3.01171 0.76953,6.01171 1.29687,8.99609 0.52344,2.98828 1.14454,5.95312 1.86329,8.89844 0.71484,2.94922 1.51953,5.86718 2.42187,8.76562 0.90234,2.89453 1.89063,5.75781 2.97266,8.58985 1.08593,2.83203 2.2539,5.625 3.51562,8.38281 1.25781,2.75781 2.60547,5.47656 4.03516,8.14844 1.43359,2.67187 2.94922,5.29687 4.54687,7.87109 1.59766,2.57812 3.27735,5.10156 5.03516,7.57031 1.76172,2.46875 3.59375,4.88281 5.50781,7.23438 1.91016,2.35547 3.89453,4.64453 5.95313,6.87109 2.05468,2.23047 4.17968,4.38672 6.375,6.48047 2.19531,2.09375 4.45312,4.11328 6.77343,6.0625 2.32422,1.94922 4.70704,3.82422 7.14844,5.62109 2.44141,1.80078 4.9375,3.51953 7.48438,5.15625 2.55078,1.64063 5.15234,3.19922 7.80078,4.67188 2.64844,1.47656 5.34375,2.86719 8.07812,4.16797 2.73828,1.30468 5.51563,2.52343 8.32813,3.64843 2.8164,1.12891 5.66406,2.16407 8.54297,3.11329 2.8789,0.94531 5.78906,1.80078 8.72265,2.5625 2.9336,0.76562 5.89063,1.43359 8.86719,2.00781 2.97656,0.57422 5.96875,1.05469 8.97656,1.4414 3.00782,0.38282 6.02344,0.67188 9.05078,0.86719 3.02344,0.19531 6.05469,0.29297 9.08594,0.29297 3.03125,0 6.0625,-0.0937 9.08594,-0.28516 3.02734,-0.1914 6.04297,-0.47656 9.05078,-0.85937 3.00781,-0.38281 6,-0.85938 8.98047,-1.42969 2.97656,-0.57422 5.93359,-1.23828 8.86719,-2 2.9375,-0.75781 5.84375,-1.60937 8.72656,-2.55469 2.87891,-0.94531 5.72656,-1.97656 8.54297,-3.10156 2.8164,-1.125 5.59375,-2.33984 8.33203,-3.64062 2.73828,-1.30078 5.43359,-2.6875 8.08203,-4.16016 2.65234,-1.47266 5.25391,-3.02734 7.80469,-4.66406 2.55078,-1.63672 5.05078,-3.35547 7.49219,-5.14844 L 553.75,691.87891 c 0.55078,0.72656 1.16406,1.39453 1.84375,2 0.67969,0.60546 1.41016,1.14062 2.19531,1.60156 0.78516,0.46094 1.60938,0.83984 2.46875,1.14062 0.85938,0.30078 1.73828,0.51172 2.64063,0.64063 0.90234,0.125 1.80859,0.16015 2.71875,0.10937 0.90625,-0.0508 1.80078,-0.1914 2.68359,-0.42187 0.88281,-0.22656 1.73047,-0.53906 2.55078,-0.9375 0.82031,-0.39453 1.59375,-0.86719 2.32031,-1.41797 0.72657,-0.54688 1.39454,-1.16016 2,-1.83984 0.60547,-0.67969 1.14063,-1.41407 1.60157,-2.19922 0.46093,-0.78125 0.84375,-1.60547 1.14062,-2.46485 0.30078,-0.85937 0.51172,-1.74218 0.64063,-2.64453 0.125,-0.89844 0.16015,-1.80469 0.10937,-2.71484 -0.0508,-0.91016 -0.1914,-1.80469 -0.42187,-2.6836 -0.22657,-0.88281 -0.53907,-1.73437 -0.9375,-2.55468 -0.39453,-0.82032 -0.86719,-1.59375 -1.41407,-2.32032 z m -305.92187,-203.25 c 0,-1.96485 0.0469,-3.92969 0.14453,-5.89454 0.0937,-1.96484 0.23828,-3.92578 0.43359,-5.88281 0.19141,-1.95703 0.4336,-3.90625 0.71875,-5.85156 0.28907,-1.94531 0.625,-3.88281 1.00782,-5.8125 0.38281,-1.92578 0.8164,-3.84375 1.29297,-5.75391 0.47656,-1.90625 1,-3.80078 1.57031,-5.68359 0.57031,-1.88281 1.1875,-3.74609 1.85156,-5.59766 0.66016,-1.85156 1.36719,-3.6875 2.12109,-5.5039 0.75,-1.81641 1.54688,-3.61328 2.39063,-5.39063 0.83984,-1.77734 1.72266,-3.53515 2.64844,-5.26953 0.92578,-1.73437 1.89453,-3.44531 2.90625,-5.13281 1.01172,-1.6836 2.0625,-3.34766 3.15625,-4.98047 1.08984,-1.63672 2.22265,-3.24219 3.39453,-4.82422 1.17187,-1.57812 2.3789,-3.12891 3.6289,-4.64844 1.2461,-1.51953 2.53125,-3.00781 3.85157,-4.46484 1.32031,-1.45703 2.67578,-2.88281 4.0664,-4.27344 1.38672,-1.39062 2.8125,-2.74609 4.26953,-4.0664 1.45704,-1.32032 2.94532,-2.60547 4.46485,-3.85157 1.51953,-1.24609 3.07031,-2.45703 4.64844,-3.6289 1.57812,-1.17188 3.1875,-2.30469 4.82031,-3.39453 1.63672,-1.09375 3.29687,-2.14454 4.98437,-3.15625 1.6875,-1.01172 3.39453,-1.98047 5.12891,-2.90625 1.73437,-0.92969 3.49219,-1.8125 5.26953,-2.65235 1.77734,-0.84375 3.57422,-1.64062 5.39063,-2.39062 1.8164,-0.75391 3.65234,-1.46094 5.5,-2.125 1.85156,-0.66016 3.71875,-1.27735 5.60156,-1.84766 1.88281,-0.57422 3.77734,-1.09766 5.68359,-1.57422 1.90625,-0.47656 3.82422,-0.91015 5.75391,-1.29297 1.92969,-0.38281 3.86719,-0.71875 5.80859,-1.00781 1.94531,-0.28906 3.89844,-0.53125 5.85547,-0.72266 1.95703,-0.1914 3.91797,-0.33984 5.87891,-0.43359 1.96484,-0.0977 3.92968,-0.14453 5.89843,-0.14453 1.96485,0 3.92969,0.0469 5.89454,0.14453 1.96484,0.0937 3.92578,0.23828 5.88281,0.43359 1.95703,0.19141 3.90625,0.4336 5.85156,0.71875 1.94531,0.28907 3.88281,0.625 5.8125,1.00782 1.92578,0.38672 3.84375,0.8164 5.75391,1.29297 1.90625,0.47656 3.80078,1.0039 5.68359,1.57421 1.87891,0.57032 3.74609,1.1875 5.59766,1.84766 1.85156,0.66406 3.6875,1.37109 5.5039,2.125 1.81641,0.75 3.61328,1.54688 5.39063,2.38672 1.77734,0.84375 3.53515,1.72656 5.26953,2.65234 1.73437,0.92578 3.44141,1.89453 5.12891,2.90625 1.6875,1.01172 3.34765,2.0625 4.98437,3.15625 1.63281,1.09375 3.24219,2.22266 4.82031,3.39453 1.57813,1.17188 3.12891,2.38282 4.64844,3.62891 1.51953,1.24609 3.00781,2.53125 4.46484,3.85156 1.45704,1.32032 2.88282,2.67578 4.27344,4.06641 1.39063,1.39062 2.7461,2.81641 4.06641,4.27344 1.32031,1.45703 2.60547,2.94531 3.85156,4.46484 1.24609,1.51953 2.45703,3.07031 3.62891,4.64844 1.17187,1.57812 2.30078,3.1875 3.39453,4.82031 1.09375,1.63672 2.14453,3.29688 3.15625,4.98438 1.01172,1.6875 1.98047,3.39843 2.90625,5.1289 0.92578,1.73438 1.80859,3.49219 2.65234,5.26953 0.83985,1.77735 1.63672,3.57422 2.38672,5.39063 0.75391,1.8164 1.46094,3.65234 2.125,5.5039 0.66016,1.85157 1.27734,3.71875 1.84766,5.59766 0.57031,1.88281 1.09765,3.77734 1.57422,5.68359 0.47656,1.91016 0.90625,3.82813 1.29296,5.75391 0.38282,1.92969 0.71875,3.86719 1.00782,5.8125 0.28906,1.94531 0.52734,3.89453 0.71875,5.85156 0.19531,1.95703 0.33984,3.91797 0.43359,5.88282 0.0977,1.96484 0.14453,3.92968 0.14453,5.89453 0,1.96875 -0.0469,3.93359 -0.14453,5.89843 -0.0937,1.96094 -0.23828,3.92188 -0.43359,5.87891 -0.19141,1.95703 -0.4336,3.91016 -0.72266,5.85547 -0.28906,1.94531 -0.625,3.87891 -1.00781,5.80859 -0.38281,1.92969 -0.8125,3.84766 -1.29297,5.75391 -0.47656,1.90625 -1,3.80078 -1.57422,5.68359 -0.57031,1.88282 -1.1875,3.75 -1.84766,5.60157 -0.66406,1.85156 -1.37109,3.68359 -2.125,5.5 -0.75,1.8164 -1.54687,3.61328 -2.39062,5.39062 -0.83984,1.77734 -1.72266,3.53516 -2.64844,5.26953 -0.92969,1.73438 -1.89844,3.44531 -2.91015,5.12891 -1.01172,1.6875 -2.0625,3.34765 -3.15625,4.98437 -1.08985,1.63282 -2.22266,3.24219 -3.39454,4.82032 -1.17187,1.57812 -2.3789,3.1289 -3.6289,4.64843 -1.2461,1.51953 -2.53125,3.00782 -3.85156,4.46485 -1.32032,1.45703 -2.67579,2.88281 -4.06641,4.27343 -1.39063,1.38672 -2.81641,2.74219 -4.27344,4.0625 -1.45703,1.32032 -2.94531,2.60547 -4.46484,3.85157 -1.51953,1.25 -3.07031,2.45703 -4.64844,3.6289 -1.58203,1.17188 -3.1875,2.30469 -4.82422,3.39453 -1.63281,1.09375 -3.29687,2.14454 -4.98047,3.15625 -1.6875,1.01172 -3.39843,1.98047 -5.13281,2.90625 -1.73437,0.92579 -3.49219,1.8086 -5.26953,2.65235 -1.77734,0.83984 -3.57422,1.63672 -5.39063,2.38672 -1.8164,0.7539 -3.65234,1.46093 -5.5039,2.12109 -1.84766,0.66406 -3.71485,1.28125 -5.59766,1.85156 -1.88281,0.57032 -3.77734,1.09375 -5.68359,1.57032 -1.91016,0.47656 -3.82813,0.91015 -5.75391,1.29296 -1.92969,0.38282 -3.86719,0.71875 -5.8125,1.00782 -1.94531,0.28906 -3.89453,0.52734 -5.85156,0.71875 -1.95703,0.19531 -3.91797,0.33984 -5.88281,0.43359 -1.96485,0.0977 -3.92969,0.14453 -5.89453,0.14453 -1.96485,0 -3.92969,-0.0469 -5.89454,-0.14453 -1.96484,-0.0977 -3.92187,-0.24219 -5.8789,-0.43359 -1.95703,-0.19532 -3.91016,-0.4336 -5.85156,-0.72266 -1.94532,-0.28906 -3.88282,-0.625 -5.8086,-1.01172 -1.92969,-0.38281 -3.84765,-0.8125 -5.7539,-1.28906 -1.90625,-0.48047 -3.80079,-1.00391 -5.6836,-1.57422 -1.8789,-0.57031 -3.74609,-1.1875 -5.59765,-1.85156 -1.85157,-0.66016 -3.6836,-1.36719 -5.5,-2.1211 -1.81641,-0.7539 -3.61329,-1.55078 -5.39063,-2.39062 -1.77734,-0.83984 -3.53125,-1.72266 -5.26562,-2.65234 -1.73438,-0.92579 -3.44532,-1.89454 -5.12891,-2.90625 -1.6875,-1.00782 -3.34766,-2.0586 -4.98047,-3.15235 -1.63672,-1.09375 -3.24219,-2.22265 -4.82031,-3.39453 -1.58203,-1.17187 -3.12891,-2.38281 -4.64844,-3.62891 -1.51953,-1.24609 -3.00781,-2.53125 -4.46484,-3.85156 -1.45703,-1.32031 -2.88282,-2.67578 -4.26953,-4.0664 -1.39063,-1.38672 -2.7461,-2.8125 -4.06641,-4.26954 -1.32031,-1.45703 -2.60547,-2.94531 -3.85156,-4.46484 -1.2461,-1.51953 -2.45703,-3.06641 -3.62891,-4.64453 -1.17187,-1.58203 -2.30078,-3.1875 -3.39453,-4.82031 -1.08984,-1.63672 -2.14453,-3.29688 -3.15234,-4.98438 -1.01172,-1.68359 -1.98047,-3.39453 -2.90625,-5.1289 -0.92969,-1.73438 -1.8125,-3.48829 -2.65235,-5.26563 -0.83984,-1.77734 -1.63672,-3.57422 -2.39062,-5.39062 -0.75391,-1.81641 -1.46094,-3.64844 -2.1211,-5.5 -0.66406,-1.85157 -1.28125,-3.71875 -1.85156,-5.59766 -0.57031,-1.88281 -1.09375,-3.77734 -1.57422,-5.68359 -0.47656,-1.90625 -0.90625,-3.82422 -1.28906,-5.75391 -0.38672,-1.92578 -0.72266,-3.86328 -1.01172,-5.80859 -0.28516,-1.94141 -0.52734,-3.89454 -0.72266,-5.85157 -0.1914,-1.95312 -0.33593,-3.91406 -0.43359,-5.8789 -0.0977,-1.96485 -0.14453,-3.92969 -0.14453,-5.89453 z m 0,0"
       fill-opacity="1"
       fill-rule="nonzero"
       id="path7" />
  </g>
</svg>
