<?xml version="1.0" encoding="UTF-8" standalone="no"?>
<svg
   width="711.98627"
   zoomAndPan="magnify"
   viewBox="0 0 533.9897 551.10886"
   height="734.81183"
   preserveAspectRatio="xMidYMid"
   version="1.0"
   id="svg15"
   xmlns="http://www.w3.org/2000/svg"
   xmlns:svg="http://www.w3.org/2000/svg">
  <defs
     id="defs5">
    <clipPath
       id="0c698cf0fd">
      <path
         d="M 129,139 H 664 V 690.59766 H 129 Z m 0,0"
         clip-rule="nonzero"
         id="path2" />
    </clipPath>
  </defs>
  <g
     clip-path="url(#0c698cf0fd)"
     id="g13"
     transform="translate(-129.87033,-139.48484)">
    <path
       fill="#282828"
       d="m 639.55859,629.42187 h 0.1211 z M 220.91016,164.82422 c -5.29297,0 -10.30079,2.39844 -15.74219,7.16015 -0.59766,0.56641 -8.37891,7.94922 -13.44141,12.76563 l -4.42187,4.17578 c -25.82422,24.13672 -37.53516,67.58203 -29.82813,110.70703 2.47656,13.92188 6.47656,28.35547 11.89453,42.87891 27.29688,73.28125 79.11328,136.99609 117.78125,177.55469 38.4961,40.82421 99.375,95.96093 171.10157,127.125 14.23046,6.17968 28.42187,10.95312 42.19921,14.17968 42.66016,9.99219 86.69532,0.63282 112.16407,-23.84765 l 4.24609,-4.03516 c 4.92969,-4.65234 12.625,-11.93359 13.74219,-13.00781 15.86328,-16.3125 7.9375,-29.8711 -23.87891,-62.21875 l -7.96094,-8.16797 c -20.15234,-20.91016 -53.97265,-55.92188 -82.55859,-52.50781 -7.77344,0.91797 -15.88672,6.58984 -24.47656,12.57812 -8.52344,5.94531 -17.33594,12.08985 -27.90235,15.4375 -28.3789,8.9961 -57.15625,3.08594 -81.07031,-16.60937 -14.29297,-11.78125 -28.84375,-25.5625 -42.05078,-39.81641 -13.36719,-13.77344 -26.34766,-29.02344 -37.33594,-43.91016 -18.38281,-24.91015 -22.73828,-53.95312 -12.25,-81.80468 3.91407,-10.375 10.52735,-18.84375 16.92578,-27.03125 6.44532,-8.25391 12.53907,-16.04688 13.86329,-23.76172 4.92187,-28.42188 -28.22266,-63.97656 -48.03516,-85.23047 l -7.71484,-8.375 c -20.99219,-22.95313 -33.76172,-34.23828 -45.25,-34.23828 z m 313.96875,525.76953 c -14.26172,0 -27.96875,-1.73438 -40.19922,-4.59766 C 479.4375,682.4375 463.78125,677.17578 448.16016,670.39062 372.5,637.52344 308.85547,579.96484 268.79297,537.47266 228.52734,495.25391 174.44531,428.63672 145.66016,351.34375 c -5.94922,-15.94922 -10.34766,-31.85156 -13.10157,-47.26953 -7.29687,-40.85938 -1.29297,-97.41797 37.46485,-133.61328 l 4.27734,-4.06641 c 5.39844,-5.11719 13.78906,-13.08594 14.12891,-13.38281 38.77343,-34.03125 73.46484,3.88672 96.40234,28.98828 l 7.5625,8.19922 c 23.00391,24.67578 61.51172,65.98828 54.45703,106.78125 -2.42187,13.95703 -11.15625,25.15234 -18.85937,35.01953 -5.47266,6.99609 -10.64844,13.61719 -13.1875,20.37891 -7.47657,19.82812 -4.37891,39.84375 8.92968,57.86718 10.32813,13.98047 22.54297,28.33594 35.33204,41.52344 12.66015,13.65625 26.35546,26.62109 39.78906,37.70703 17.30078,14.25391 37.125,18.39844 57.33203,12.02344 6.88672,-2.19922 13.76172,-6.99609 21.05078,-12.07813 10.28125,-7.16406 21.91016,-15.29687 35.99219,-16.95312 41.25,-4.86328 80.33984,35.78516 103.7539,60.07422 l 7.79297,7.98047 c 23.83594,24.24609 59.86328,60.89453 23.83594,97.73828 -0.5625,0.54297 -9.01953,8.5664 -14.35937,13.60547 l -4.11329,3.90234 c -26.65234,25.61719 -62.375,34.82422 -95.26171,34.82422"
       fill-opacity="1"
       fill-rule="nonzero"
       id="path11" />
  </g>
</svg>
