<svg xmlns="http://www.w3.org/2000/svg" xmlns:xlink="http://www.w3.org/1999/xlink" width="1080" zoomAndPan="magnify" viewBox="0 0 810 1012.49997" height="1350" preserveAspectRatio="xMidYMid meet" version="1.0"><defs><clipPath id="b7d1a4bb49"><path d="M 246 328 L 579 328 L 579 697.96875 L 246 697.96875 Z M 246 328 " clip-rule="nonzero"/></clipPath></defs><g clip-path="url(#b7d1a4bb49)"><path fill="#f16122" d="M 575.734375 675.222656 L 495.421875 569.027344 C 497.476562 566.792969 499.457031 564.5 501.363281 562.144531 C 503.269531 559.785156 505.101562 557.371094 506.851562 554.898438 C 508.605469 552.421875 510.28125 549.898438 511.875 547.316406 C 513.46875 544.738281 514.976562 542.109375 516.402344 539.433594 C 517.832031 536.757812 519.171875 534.042969 520.425781 531.28125 C 521.679688 528.519531 522.84375 525.722656 523.921875 522.890625 C 524.996094 520.054688 525.984375 517.1875 526.878906 514.292969 C 527.773438 511.394531 528.574219 508.472656 529.285156 505.523438 C 529.992188 502.578125 530.609375 499.609375 531.128906 496.621094 C 531.652344 493.636719 532.078125 490.636719 532.40625 487.621094 C 532.738281 484.605469 532.972656 481.585938 533.109375 478.558594 C 533.25 475.527344 533.292969 472.496094 533.238281 469.464844 C 533.1875 466.433594 533.035156 463.40625 532.789062 460.386719 C 532.546875 457.363281 532.203125 454.351562 531.769531 451.351562 C 531.332031 448.351562 530.800781 445.367188 530.175781 442.402344 C 529.546875 439.433594 528.828125 436.492188 528.015625 433.570312 C 527.203125 430.648438 526.300781 427.757812 525.300781 424.894531 C 524.304688 422.03125 523.21875 419.199219 522.042969 416.40625 C 520.867188 413.609375 519.605469 410.855469 518.253906 408.140625 C 516.90625 405.425781 515.46875 402.757812 513.949219 400.132812 C 512.429688 397.511719 510.828125 394.9375 509.144531 392.417969 C 507.460938 389.894531 505.699219 387.429688 503.859375 385.019531 C 502.019531 382.609375 500.105469 380.257812 498.117188 377.96875 C 496.128906 375.683594 494.070312 373.457031 491.9375 371.300781 C 489.808594 369.144531 487.613281 367.054688 485.351562 365.035156 C 483.089844 363.015625 480.765625 361.074219 478.378906 359.203125 C 475.992188 357.332031 473.550781 355.535156 471.050781 353.820312 C 468.550781 352.105469 466 350.46875 463.394531 348.914062 C 460.792969 347.359375 458.140625 345.890625 455.445312 344.503906 C 452.75 343.121094 450.011719 341.820312 447.230469 340.609375 C 444.453125 339.394531 441.636719 338.273438 438.789062 337.238281 C 435.9375 336.207031 433.058594 335.261719 430.148438 334.410156 C 427.238281 333.5625 424.304688 332.804688 421.34375 332.140625 C 418.386719 331.472656 415.410156 330.902344 412.414062 330.429688 C 409.421875 329.953125 406.414062 329.570312 403.394531 329.285156 C 400.378906 329 397.351562 328.8125 394.324219 328.71875 C 391.292969 328.625 388.261719 328.628906 385.230469 328.730469 C 382.199219 328.828125 379.175781 329.023438 376.160156 329.3125 C 373.140625 329.605469 370.136719 329.992188 367.140625 330.472656 C 364.148438 330.957031 361.171875 331.53125 358.214844 332.203125 C 355.257812 332.875 352.328125 333.636719 349.417969 334.492188 C 346.507812 335.351562 343.632812 336.296875 340.78125 337.339844 C 337.933594 338.378906 335.121094 339.507812 332.34375 340.722656 C 329.570312 341.941406 326.832031 343.246094 324.140625 344.636719 C 321.445312 346.027344 318.796875 347.503906 316.199219 349.0625 C 313.597656 350.625 311.050781 352.265625 308.554688 353.984375 C 306.058594 355.707031 303.617188 357.503906 301.238281 359.378906 C 298.855469 361.257812 296.535156 363.207031 294.277344 365.230469 C 292.019531 367.253906 289.824219 369.34375 287.699219 371.507812 C 285.574219 373.667969 283.519531 375.898438 281.535156 378.1875 C 279.550781 380.480469 277.640625 382.835938 275.808594 385.25 C 273.972656 387.664062 272.214844 390.132812 270.539062 392.65625 C 268.859375 395.183594 267.261719 397.757812 265.75 400.386719 C 264.234375 403.011719 262.804688 405.683594 261.460938 408.402344 C 260.113281 411.117188 258.855469 413.875 257.6875 416.671875 C 256.515625 419.46875 255.4375 422.300781 254.445312 425.167969 C 253.457031 428.03125 252.554688 430.925781 251.75 433.847656 C 250.941406 436.773438 250.230469 439.71875 249.609375 442.683594 C 248.988281 445.652344 248.464844 448.636719 248.035156 451.640625 C 247.601562 454.640625 247.269531 457.652344 247.027344 460.675781 C 246.789062 463.699219 246.644531 466.722656 246.597656 469.757812 C 246.550781 472.789062 246.601562 475.816406 246.746094 478.847656 C 246.890625 481.875 247.132812 484.894531 247.46875 487.910156 C 247.804688 490.921875 248.238281 493.921875 248.765625 496.90625 C 249.289062 499.894531 249.910156 502.859375 250.628906 505.804688 C 251.34375 508.753906 252.148438 511.671875 253.050781 514.570312 C 253.953125 517.464844 254.941406 520.328125 256.023438 523.160156 C 257.109375 525.992188 258.277344 528.785156 259.539062 531.542969 C 260.796875 534.300781 262.144531 537.019531 263.574219 539.691406 C 265.007812 542.363281 266.523438 544.988281 268.121094 547.5625 C 269.71875 550.140625 271.398438 552.664062 273.15625 555.132812 C 274.917969 557.601562 276.75 560.015625 278.664062 562.367188 C 280.574219 564.722656 282.558594 567.011719 284.617188 569.238281 C 286.671875 571.46875 288.796875 573.625 290.992188 575.71875 C 293.1875 577.8125 295.445312 579.832031 297.765625 581.78125 C 300.089844 583.730469 302.472656 585.605469 304.914062 587.402344 C 307.355469 589.203125 309.851562 590.921875 312.398438 592.558594 C 314.949219 594.199219 317.550781 595.757812 320.199219 597.230469 C 322.847656 598.707031 325.542969 600.097656 328.277344 601.398438 C 331.015625 602.703125 333.792969 603.921875 336.605469 605.046875 C 339.421875 606.175781 342.269531 607.210938 345.148438 608.160156 C 348.027344 609.105469 350.9375 609.960938 353.871094 610.722656 C 356.804688 611.488281 359.761719 612.15625 362.738281 612.730469 C 365.714844 613.304688 368.707031 613.785156 371.714844 614.171875 C 374.722656 614.554688 377.738281 614.84375 380.765625 615.039062 C 383.789062 615.234375 386.820312 615.332031 389.851562 615.332031 C 392.882812 615.332031 395.914062 615.238281 398.9375 615.046875 C 401.964844 614.855469 404.980469 614.570312 407.988281 614.1875 C 410.996094 613.804688 413.988281 613.328125 416.96875 612.757812 C 419.945312 612.183594 422.902344 611.519531 425.835938 610.757812 C 428.773438 610 431.679688 609.148438 434.5625 608.203125 C 437.441406 607.257812 440.289062 606.226562 443.105469 605.101562 C 445.921875 603.976562 448.699219 602.761719 451.4375 601.460938 C 454.175781 600.160156 456.871094 598.773438 459.519531 597.300781 C 462.171875 595.828125 464.773438 594.273438 467.324219 592.636719 C 469.875 591 472.375 589.28125 474.816406 587.488281 L 553.75 691.878906 C 554.300781 692.605469 554.914062 693.273438 555.59375 693.878906 C 556.273438 694.484375 557.003906 695.019531 557.789062 695.480469 C 558.574219 695.941406 559.398438 696.320312 560.257812 696.621094 C 561.117188 696.921875 561.996094 697.132812 562.898438 697.261719 C 563.800781 697.386719 564.707031 697.421875 565.617188 697.371094 C 566.523438 697.320312 567.417969 697.179688 568.300781 696.949219 C 569.183594 696.722656 570.03125 696.410156 570.851562 696.011719 C 571.671875 695.617188 572.445312 695.144531 573.171875 694.59375 C 573.898438 694.046875 574.566406 693.433594 575.171875 692.753906 C 575.777344 692.074219 576.3125 691.339844 576.773438 690.554688 C 577.234375 689.773438 577.617188 688.949219 577.914062 688.089844 C 578.214844 687.230469 578.425781 686.347656 578.554688 685.445312 C 578.679688 684.546875 578.714844 683.640625 578.664062 682.730469 C 578.613281 681.820312 578.472656 680.925781 578.242188 680.046875 C 578.015625 679.164062 577.703125 678.3125 577.304688 677.492188 C 576.910156 676.671875 576.4375 675.898438 575.890625 675.171875 Z M 269.8125 471.972656 C 269.8125 470.007812 269.859375 468.042969 269.957031 466.078125 C 270.050781 464.113281 270.195312 462.152344 270.390625 460.195312 C 270.582031 458.238281 270.824219 456.289062 271.109375 454.34375 C 271.398438 452.398438 271.734375 450.460938 272.117188 448.53125 C 272.5 446.605469 272.933594 444.6875 273.410156 442.777344 C 273.886719 440.871094 274.410156 438.976562 274.980469 437.09375 C 275.550781 435.210938 276.167969 433.347656 276.832031 431.496094 C 277.492188 429.644531 278.199219 427.808594 278.953125 425.992188 C 279.703125 424.175781 280.5 422.378906 281.34375 420.601562 C 282.183594 418.824219 283.066406 417.066406 283.992188 415.332031 C 284.917969 413.597656 285.886719 411.886719 286.898438 410.199219 C 287.910156 408.515625 288.960938 406.851562 290.054688 405.21875 C 291.144531 403.582031 292.277344 401.976562 293.449219 400.394531 C 294.621094 398.816406 295.828125 397.265625 297.078125 395.746094 C 298.324219 394.226562 299.609375 392.738281 300.929688 391.28125 C 302.25 389.824219 303.605469 388.398438 304.996094 387.007812 C 306.382812 385.617188 307.808594 384.261719 309.265625 382.941406 C 310.722656 381.621094 312.210938 380.335938 313.730469 379.089844 C 315.25 377.84375 316.800781 376.632812 318.378906 375.460938 C 319.957031 374.289062 321.566406 373.15625 323.199219 372.066406 C 324.835938 370.972656 326.496094 369.921875 328.183594 368.910156 C 329.871094 367.898438 331.578125 366.929688 333.3125 366.003906 C 335.046875 365.074219 336.804688 364.191406 338.582031 363.351562 C 340.359375 362.507812 342.15625 361.710938 343.972656 360.960938 C 345.789062 360.207031 347.625 359.5 349.472656 358.835938 C 351.324219 358.175781 353.191406 357.558594 355.074219 356.988281 C 356.957031 356.414062 358.851562 355.890625 360.757812 355.414062 C 362.664062 354.9375 364.582031 354.503906 366.511719 354.121094 C 368.441406 353.738281 370.378906 353.402344 372.320312 353.113281 C 374.265625 352.824219 376.21875 352.582031 378.175781 352.390625 C 380.132812 352.199219 382.09375 352.050781 384.054688 351.957031 C 386.019531 351.859375 387.984375 351.8125 389.953125 351.8125 C 391.917969 351.8125 393.882812 351.859375 395.847656 351.957031 C 397.8125 352.050781 399.773438 352.195312 401.730469 352.390625 C 403.6875 352.582031 405.636719 352.824219 407.582031 353.109375 C 409.527344 353.398438 411.464844 353.734375 413.394531 354.117188 C 415.320312 354.503906 417.238281 354.933594 419.148438 355.410156 C 421.054688 355.886719 422.949219 356.414062 424.832031 356.984375 C 426.710938 357.554688 428.578125 358.171875 430.429688 358.832031 C 432.28125 359.496094 434.117188 360.203125 435.933594 360.957031 C 437.75 361.707031 439.546875 362.503906 441.324219 363.34375 C 443.101562 364.1875 444.859375 365.070312 446.59375 365.996094 C 448.328125 366.921875 450.035156 367.890625 451.722656 368.902344 C 453.410156 369.914062 455.070312 370.964844 456.707031 372.058594 C 458.339844 373.152344 459.949219 374.28125 461.527344 375.453125 C 463.105469 376.625 464.65625 377.835938 466.175781 379.082031 C 467.695312 380.328125 469.183594 381.613281 470.640625 382.933594 C 472.097656 384.253906 473.523438 385.609375 474.914062 387 C 476.304688 388.390625 477.660156 389.816406 478.980469 391.273438 C 480.300781 392.730469 481.585938 394.21875 482.832031 395.738281 C 484.078125 397.257812 485.289062 398.808594 486.460938 400.386719 C 487.632812 401.964844 488.761719 403.574219 489.855469 405.207031 C 490.949219 406.84375 492 408.503906 493.011719 410.191406 C 494.023438 411.878906 494.992188 413.589844 495.917969 415.320312 C 496.84375 417.054688 497.726562 418.8125 498.570312 420.589844 C 499.410156 422.367188 500.207031 424.164062 500.957031 425.980469 C 501.710938 427.796875 502.417969 429.632812 503.082031 431.484375 C 503.742188 433.335938 504.359375 435.203125 504.929688 437.082031 C 505.5 438.964844 506.027344 440.859375 506.503906 442.765625 C 506.980469 444.675781 507.410156 446.59375 507.796875 448.519531 C 508.179688 450.449219 508.515625 452.386719 508.804688 454.332031 C 509.09375 456.277344 509.332031 458.226562 509.523438 460.183594 C 509.71875 462.140625 509.863281 464.101562 509.957031 466.066406 C 510.054688 468.03125 510.101562 469.996094 510.101562 471.960938 C 510.101562 473.929688 510.054688 475.894531 509.957031 477.859375 C 509.863281 479.820312 509.71875 481.78125 509.523438 483.738281 C 509.332031 485.695312 509.089844 487.648438 508.800781 489.59375 C 508.511719 491.539062 508.175781 493.472656 507.792969 495.402344 C 507.410156 497.332031 506.980469 499.25 506.5 501.15625 C 506.023438 503.0625 505.5 504.957031 504.925781 506.839844 C 504.355469 508.722656 503.738281 510.589844 503.078125 512.441406 C 502.414062 514.292969 501.707031 516.125 500.953125 517.941406 C 500.203125 519.757812 499.40625 521.554688 498.5625 523.332031 C 497.722656 525.109375 496.839844 526.867188 495.914062 528.601562 C 494.984375 530.335938 494.015625 532.046875 493.003906 533.730469 C 491.992188 535.417969 490.941406 537.078125 489.847656 538.714844 C 488.757812 540.347656 487.625 541.957031 486.453125 543.535156 C 485.28125 545.113281 484.074219 546.664062 482.824219 548.183594 C 481.578125 549.703125 480.292969 551.191406 478.972656 552.648438 C 477.652344 554.105469 476.296875 555.53125 474.90625 556.921875 C 473.515625 558.308594 472.089844 559.664062 470.632812 560.984375 C 469.175781 562.304688 467.6875 563.589844 466.167969 564.835938 C 464.648438 566.085938 463.097656 567.292969 461.519531 568.464844 C 459.9375 569.636719 458.332031 570.769531 456.695312 571.859375 C 455.0625 572.953125 453.398438 574.003906 451.714844 575.015625 C 450.027344 576.027344 448.316406 576.996094 446.582031 577.921875 C 444.847656 578.847656 443.089844 579.730469 441.3125 580.574219 C 439.535156 581.414062 437.738281 582.210938 435.921875 582.960938 C 434.105469 583.714844 432.269531 584.421875 430.417969 585.082031 C 428.570312 585.746094 426.703125 586.363281 424.820312 586.933594 C 422.9375 587.503906 421.042969 588.027344 419.136719 588.503906 C 417.226562 588.980469 415.308594 589.414062 413.382812 589.796875 C 411.453125 590.179688 409.515625 590.515625 407.570312 590.804688 C 405.625 591.09375 403.675781 591.332031 401.71875 591.523438 C 399.761719 591.71875 397.800781 591.863281 395.835938 591.957031 C 393.871094 592.054688 391.90625 592.101562 389.941406 592.101562 C 387.976562 592.101562 386.011719 592.054688 384.046875 591.957031 C 382.082031 591.859375 380.125 591.714844 378.167969 591.523438 C 376.210938 591.328125 374.257812 591.089844 372.316406 590.800781 C 370.371094 590.511719 368.433594 590.175781 366.507812 589.789062 C 364.578125 589.40625 362.660156 588.976562 360.753906 588.5 C 358.847656 588.019531 356.953125 587.496094 355.070312 586.925781 C 353.191406 586.355469 351.324219 585.738281 349.472656 585.074219 C 347.621094 584.414062 345.789062 583.707031 343.972656 582.953125 C 342.15625 582.199219 340.359375 581.402344 338.582031 580.5625 C 336.804688 579.722656 335.050781 578.839844 333.316406 577.910156 C 331.582031 576.984375 329.871094 576.015625 328.1875 575.003906 C 326.5 573.996094 324.839844 572.945312 323.207031 571.851562 C 321.570312 570.757812 319.964844 569.628906 318.386719 568.457031 C 316.804688 567.285156 315.257812 566.074219 313.738281 564.828125 C 312.21875 563.582031 310.730469 562.296875 309.273438 560.976562 C 307.816406 559.65625 306.390625 558.300781 305.003906 556.910156 C 303.613281 555.523438 302.257812 554.097656 300.9375 552.640625 C 299.617188 551.183594 298.332031 549.695312 297.085938 548.175781 C 295.839844 546.65625 294.628906 545.109375 293.457031 543.53125 C 292.285156 541.949219 291.15625 540.34375 290.0625 538.710938 C 288.972656 537.074219 287.917969 535.414062 286.910156 533.726562 C 285.898438 532.042969 284.929688 530.332031 284.003906 528.597656 C 283.074219 526.863281 282.191406 525.109375 281.351562 523.332031 C 280.511719 521.554688 279.714844 519.757812 278.960938 517.941406 C 278.207031 516.125 277.5 514.292969 276.839844 512.441406 C 276.175781 510.589844 275.558594 508.722656 274.988281 506.84375 C 274.417969 504.960938 273.894531 503.066406 273.414062 501.160156 C 272.9375 499.253906 272.507812 497.335938 272.125 495.40625 C 271.738281 493.480469 271.402344 491.542969 271.113281 489.597656 C 270.828125 487.65625 270.585938 485.703125 270.390625 483.746094 C 270.199219 481.792969 270.054688 479.832031 269.957031 477.867188 C 269.859375 475.902344 269.8125 473.9375 269.8125 471.972656 Z M 269.8125 471.972656 " fill-opacity="1" fill-rule="nonzero"/></g></svg>